<svg width="783" height="150" viewBox="0 0 783 150" fill="none" xmlns="http://www.w3.org/2000/svg">
<path d="M0 0H496.154V150H0V0Z" fill="#13A4EC"/>
<path d="M782.419 62.7077H757.834C757.506 60.1837 756.834 57.9055 755.818 55.8732C754.802 53.8408 753.458 52.1035 751.786 50.6612C750.114 49.2189 748.131 48.1208 745.836 47.3668C743.575 46.5801 741.067 46.1868 738.314 46.1868C733.429 46.1868 729.217 47.3832 725.677 49.7761C722.169 52.1691 719.465 55.6273 717.564 60.1509C715.696 64.6745 714.761 70.1487 714.761 76.5736C714.761 83.2606 715.712 88.866 717.613 93.3896C719.547 97.8804 722.251 101.273 725.726 103.568C729.234 105.829 733.38 106.96 738.166 106.96C740.854 106.96 743.296 106.616 745.492 105.928C747.721 105.239 749.672 104.24 751.343 102.928C753.048 101.584 754.441 99.9619 755.523 98.0607C756.637 96.1267 757.408 93.9468 757.834 91.5211L782.419 91.6686C781.992 96.1267 780.698 100.519 778.534 104.846C776.404 109.173 773.47 113.123 769.733 116.696C765.996 120.236 761.44 123.055 756.064 125.153C750.721 127.251 744.591 128.3 737.674 128.3C728.562 128.3 720.399 126.3 713.188 122.301C706.009 118.269 700.338 112.402 696.175 104.699C692.012 96.9953 689.931 87.6203 689.931 76.5736C689.931 65.494 692.045 56.1026 696.274 48.3994C700.502 40.6962 706.222 34.845 713.434 30.8459C720.645 26.8467 728.725 24.8472 737.674 24.8472C743.771 24.8472 749.409 25.6994 754.589 27.404C759.768 29.0758 764.324 31.5342 768.258 34.7794C772.191 37.9918 775.387 41.9418 777.846 46.6293C780.304 51.3168 781.829 56.6763 782.419 62.7077Z" fill="white"/>
<path d="M601.4 126.923V26.2241H671.615V45.9902H625.739V66.6415H668.025V86.4568H625.739V107.157H671.615V126.923H601.4Z" fill="white"/>
<path d="M560.272 56.414C559.944 52.8083 558.486 50.0056 555.896 48.006C553.339 45.9737 549.684 44.9575 544.931 44.9575C541.784 44.9575 539.162 45.3673 537.064 46.1868C534.966 47.0063 533.393 48.1372 532.344 49.5795C531.295 50.989 530.754 52.6116 530.721 54.4473C530.656 55.9551 530.951 57.2827 531.606 58.43C532.295 59.5773 533.278 60.5935 534.556 61.4785C535.868 62.3308 537.441 63.0847 539.277 63.7403C541.112 64.3959 543.177 64.9695 545.472 65.4612L554.126 67.428C559.108 68.5098 563.501 69.9521 567.303 71.7549C571.139 73.5578 574.351 75.7049 576.941 78.1962C579.563 80.6874 581.546 83.5556 582.89 86.8008C584.234 90.046 584.922 93.6846 584.955 97.7165C584.922 104.076 583.316 109.534 580.137 114.09C576.957 118.646 572.384 122.137 566.418 124.563C560.485 126.989 553.323 128.202 544.931 128.202C536.507 128.202 529.164 126.94 522.903 124.416C516.642 121.892 511.775 118.056 508.3 112.91C504.825 107.763 503.039 101.257 502.94 93.3896H526.247C526.443 96.6348 527.312 99.3391 528.853 101.503C530.393 103.666 532.508 105.305 535.196 106.419C537.916 107.534 541.063 108.091 544.636 108.091C547.914 108.091 550.7 107.649 552.995 106.764C555.322 105.879 557.109 104.649 558.354 103.076C559.6 101.503 560.239 99.6997 560.272 97.6673C560.239 95.7661 559.649 94.1435 558.502 92.7995C557.355 91.4228 555.585 90.2427 553.192 89.2593C550.832 88.2431 547.816 87.3089 544.145 86.4567L533.622 83.9982C524.903 81.9986 518.035 78.7698 513.02 74.3118C508.005 69.8209 505.514 63.7567 505.546 56.119C505.514 49.8909 507.185 44.4331 510.562 39.7456C513.938 35.0581 518.609 31.4031 524.575 28.7807C530.541 26.1584 537.343 24.8472 544.98 24.8472C552.782 24.8472 559.551 26.1747 565.287 28.8299C571.057 31.4523 575.531 35.14 578.711 39.8931C581.89 44.6461 583.513 50.1531 583.578 56.414H560.272Z" fill="white"/>
<path d="M410.009 126.923V26.2241H451.607C459.146 26.2241 465.653 27.5844 471.127 30.3051C476.634 32.9931 480.879 36.8611 483.862 41.9092C486.845 46.9245 488.336 52.874 488.336 59.7577C488.336 66.7398 486.812 72.6729 483.764 77.5571C480.715 82.4085 476.388 86.1126 470.783 88.6694C465.178 91.1935 458.54 92.4555 450.869 92.4555H424.563V73.2794H446.346C450.017 73.2794 453.082 72.804 455.54 71.8534C458.032 70.87 459.916 69.395 461.195 67.4282C462.473 65.4286 463.112 62.8718 463.112 59.7577C463.112 56.6436 462.473 54.0704 461.195 52.0381C459.916 49.973 458.032 48.4323 455.54 47.4162C453.049 46.3672 449.984 45.8427 446.346 45.8427H434.348V126.923H410.009ZM466.702 80.9006L491.778 126.923H465.227L440.642 80.9006H466.702Z" fill="#0F172A"/>
<path d="M320.399 126.923V26.2241H390.613V45.9902H344.738V66.6415H387.024V86.4568H344.738V107.157H390.613V126.923H320.399Z" fill="#0F172A"/>
<path d="M224.299 126.923V26.2241H266.29C273.829 26.2241 280.139 27.2894 285.22 29.4201C290.334 31.5508 294.169 34.5337 296.726 38.3689C299.315 42.2042 300.61 46.6458 300.61 51.6939C300.61 55.5291 299.807 58.9546 298.201 61.9703C296.594 64.9533 294.382 67.4282 291.563 69.395C288.744 71.3617 285.482 72.7385 281.778 73.5252V74.5086C285.843 74.7053 289.596 75.8034 293.038 77.803C296.513 79.8025 299.299 82.5888 301.397 86.1618C303.495 89.702 304.544 93.8978 304.544 98.7492C304.544 104.158 303.167 108.993 300.413 113.254C297.66 117.483 293.677 120.826 288.465 123.285C283.253 125.711 276.927 126.923 269.486 126.923H224.299ZM248.638 107.305H263.684C268.961 107.305 272.846 106.305 275.337 104.305C277.861 102.306 279.123 99.5195 279.123 95.9465C279.123 93.3569 278.516 91.1279 277.304 89.2595C276.091 87.3582 274.37 85.8995 272.141 84.8834C269.912 83.8344 267.24 83.3099 264.126 83.3099H248.638V107.305ZM248.638 67.6248H262.11C264.765 67.6248 267.126 67.1823 269.191 66.2973C271.256 65.4122 272.862 64.1338 274.009 62.462C275.189 60.7903 275.779 58.7743 275.779 56.4142C275.779 53.0379 274.583 50.3827 272.19 48.4487C269.797 46.5147 266.568 45.5477 262.504 45.5477H248.638V67.6248Z" fill="#0F172A"/>
<path d="M112.094 26.2241H139.285L160.575 68.3624H161.46L182.75 26.2241H209.941L173.113 93.2914V126.923H148.922V93.2914L112.094 26.2241Z" fill="#0F172A"/>
<path d="M99.0285 62.7077H74.4437C74.1159 60.1837 73.4439 57.9055 72.4277 55.8732C71.4116 53.8408 70.0676 52.1035 68.3958 50.6612C66.7241 49.2189 64.7409 48.1208 62.4463 47.3668C60.1845 46.5801 57.6769 46.1868 54.9234 46.1868C50.0392 46.1868 45.827 47.3832 42.2868 49.7761C38.7794 52.1691 36.075 55.6273 34.1738 60.1509C32.3054 64.6745 31.3711 70.1487 31.3711 76.5736C31.3711 83.2606 32.3218 88.866 34.223 93.3896C36.157 97.8804 38.8613 101.273 42.336 103.568C45.8434 105.829 49.99 106.96 54.7759 106.96C57.4638 106.96 59.9059 106.616 62.1021 105.928C64.3311 105.239 66.2815 104.24 67.9533 102.928C69.6578 101.584 71.051 99.9619 72.1327 98.0607C73.2472 96.1267 74.0175 93.9468 74.4437 91.5211L99.0285 91.6686C98.6023 96.1267 97.3075 100.519 95.1441 104.846C93.0134 109.173 90.0796 113.123 86.3427 116.696C82.6058 120.236 78.0495 123.055 72.6736 125.153C67.3305 127.251 61.2007 128.3 54.2842 128.3C45.1714 128.3 37.0093 126.3 29.7977 122.301C22.619 118.269 16.9481 112.402 12.7851 104.699C8.62204 96.9953 6.54053 87.6203 6.54053 76.5736C6.54053 65.494 8.65482 56.1026 12.8834 48.3994C17.112 40.6962 22.832 34.845 30.0436 30.8459C37.2551 26.8467 45.3353 24.8472 54.2842 24.8472C60.3812 24.8472 66.0193 25.6994 71.1985 27.404C76.3777 29.0758 80.9341 31.5342 84.8676 34.7794C88.8012 37.9918 91.9972 41.9418 94.4557 46.6293C96.9142 51.3168 98.4384 56.6763 99.0285 62.7077Z" fill="#0F172A"/>
</svg>
