<svg width="173" height="33" viewBox="0 0 173 33" fill="none" xmlns="http://www.w3.org/2000/svg">
<path d="M0 0H109.154V33H0V0Z" fill="#13A4EC"/>
<path d="M172.132 13.7957H166.723C166.651 13.2404 166.503 12.7392 166.279 12.2921C166.056 11.845 165.76 11.4627 165.392 11.1454C165.025 10.8281 164.588 10.5865 164.084 10.4207C163.586 10.2476 163.034 10.1611 162.428 10.1611C161.354 10.1611 160.427 10.4243 159.648 10.9507C158.877 11.4772 158.282 12.238 157.864 13.2332C157.453 14.2284 157.247 15.4327 157.247 16.8462C157.247 18.3173 157.456 19.5505 157.874 20.5457C158.3 21.5337 158.895 22.28 159.659 22.7849C160.431 23.2825 161.343 23.5312 162.396 23.5312C162.987 23.5312 163.525 23.4555 164.008 23.3041C164.498 23.1526 164.927 22.9327 165.295 22.6442C165.67 22.3486 165.977 21.9916 166.215 21.5733C166.46 21.1478 166.629 20.6683 166.723 20.1346L172.132 20.1671C172.038 21.1478 171.753 22.1142 171.277 23.0661C170.808 24.018 170.163 24.887 169.341 25.6731C168.519 26.4519 167.516 27.0721 166.334 27.5337C165.158 27.9952 163.809 28.226 162.288 28.226C160.283 28.226 158.487 27.7861 156.901 26.9062C155.321 26.0192 154.074 24.7284 153.158 23.0337C152.242 21.3389 151.784 19.2764 151.784 16.8462C151.784 14.4087 152.249 12.3425 153.18 10.6478C154.11 8.95313 155.368 7.66587 156.955 6.78606C158.541 5.90625 160.319 5.46635 162.288 5.46635C163.629 5.46635 164.87 5.65385 166.009 6.02885C167.148 6.39664 168.151 6.9375 169.016 7.65144C169.882 8.35817 170.585 9.22716 171.126 10.2584C171.666 11.2897 172.002 12.4688 172.132 13.7957Z" fill="white"/>
<path d="M132.308 27.9231V5.76923H147.755V10.1178H137.662V14.6611H146.965V19.0204H137.662V23.5745H147.755V27.9231H132.308Z" fill="white"/>
<path d="M123.259 12.4111C123.187 11.6178 122.866 11.0012 122.297 10.5613C121.734 10.1142 120.93 9.89063 119.884 9.89063C119.192 9.89063 118.615 9.98077 118.154 10.1611C117.692 10.3413 117.346 10.5901 117.115 10.9075C116.884 11.2175 116.766 11.5745 116.758 11.9784C116.744 12.3101 116.809 12.6022 116.953 12.8546C117.104 13.107 117.321 13.3305 117.602 13.5252C117.891 13.7127 118.237 13.8786 118.641 14.0228C119.044 14.1671 119.499 14.2933 120.003 14.4014L121.907 14.8341C123.003 15.0721 123.97 15.3894 124.806 15.7861C125.65 16.1827 126.357 16.655 126.927 17.2031C127.503 17.7512 127.94 18.3822 128.235 19.0962C128.531 19.8101 128.683 20.6106 128.69 21.4976C128.683 22.8966 128.329 24.0974 127.63 25.0998C126.93 26.1022 125.924 26.8702 124.612 27.4038C123.306 27.9375 121.731 28.2043 119.884 28.2043C118.031 28.2043 116.416 27.9267 115.038 27.3714C113.661 26.8161 112.59 25.9724 111.826 24.8401C111.061 23.7079 110.668 22.2764 110.647 20.5457H115.774C115.817 21.2596 116.008 21.8546 116.347 22.3305C116.686 22.8065 117.151 23.1671 117.743 23.4123C118.341 23.6575 119.034 23.78 119.82 23.78C120.541 23.78 121.154 23.6827 121.659 23.488C122.171 23.2933 122.564 23.0228 122.838 22.6767C123.112 22.3305 123.252 21.9339 123.259 21.4868C123.252 21.0685 123.122 20.7115 122.87 20.4159C122.618 20.113 122.228 19.8534 121.702 19.637C121.183 19.4135 120.519 19.2079 119.711 19.0204L117.397 18.4796C115.478 18.0397 113.967 17.3293 112.864 16.3486C111.761 15.3606 111.213 14.0264 111.22 12.3462C111.213 10.976 111.58 9.77524 112.323 8.74399C113.066 7.71274 114.094 6.90865 115.406 6.33173C116.719 5.75481 118.215 5.46635 119.895 5.46635C121.612 5.46635 123.101 5.75841 124.363 6.34255C125.632 6.91947 126.616 7.73077 127.316 8.77644C128.016 9.82212 128.372 11.0337 128.387 12.4111H123.259Z" fill="white"/>
<path d="M90.202 27.9231V5.76923H99.3535C101.012 5.76923 102.444 6.06851 103.648 6.66707C104.859 7.25842 105.793 8.10938 106.45 9.21995C107.106 10.3233 107.434 11.6322 107.434 13.1466C107.434 14.6827 107.099 15.988 106.428 17.0625C105.757 18.1298 104.805 18.9447 103.572 19.5072C102.339 20.0625 100.879 20.3401 99.1912 20.3401H93.404V16.1214H98.196C99.0037 16.1214 99.678 16.0168 100.219 15.8077C100.767 15.5913 101.182 15.2668 101.463 14.8341C101.744 14.3942 101.885 13.8317 101.885 13.1466C101.885 12.4615 101.744 11.8954 101.463 11.4483C101.182 10.994 100.767 10.6551 100.219 10.4315C99.6708 10.2007 98.9965 10.0853 98.196 10.0853H95.5566V27.9231H90.202ZM102.674 17.7981L108.191 27.9231H102.35L96.9412 17.7981H102.674Z" fill="#0F172A"/>
<path d="M70.4876 27.9231V5.76923H85.9348V10.1178H75.8422V14.6611H85.1451V19.0204H75.8422V23.5745H85.9348V27.9231H70.4876Z" fill="#0F172A"/>
<path d="M49.3455 27.9231V5.76923H58.5834C60.2421 5.76923 61.6303 6.00361 62.7481 6.47236C63.8731 6.94111 64.7169 7.59736 65.2794 8.44111C65.8491 9.28486 66.1339 10.262 66.1339 11.3726C66.1339 12.2163 65.9572 12.97 65.6039 13.6334C65.2505 14.2897 64.7637 14.8341 64.1435 15.2668C63.5233 15.6995 62.8058 16.0024 61.9909 16.1755V16.3918C62.8851 16.4351 63.7108 16.6767 64.4681 17.1166C65.2325 17.5565 65.8455 18.1695 66.307 18.9555C66.7685 19.7344 66.9993 20.6575 66.9993 21.7248C66.9993 22.9147 66.6964 23.9784 66.0907 24.9159C65.4849 25.8462 64.6087 26.5817 63.462 27.1226C62.3154 27.6563 60.9236 27.9231 59.2866 27.9231H49.3455ZM54.7 23.607H58.0101C59.1712 23.607 60.0257 23.387 60.5738 22.9471C61.1291 22.5072 61.4068 21.8942 61.4068 21.1082C61.4068 20.5385 61.2733 20.0481 61.0065 19.637C60.7397 19.2188 60.3611 18.8978 59.8707 18.6743C59.3803 18.4435 58.7926 18.3281 58.1075 18.3281H54.7V23.607ZM54.7 14.8774H57.664C58.2481 14.8774 58.7673 14.7801 59.2217 14.5853C59.676 14.3906 60.0294 14.1094 60.2818 13.7416C60.5414 13.3738 60.6712 12.9303 60.6712 12.4111C60.6712 11.6683 60.408 11.0841 59.8815 10.6587C59.3551 10.2332 58.6447 10.0204 57.7505 10.0204H54.7V14.8774Z" fill="#0F172A"/>
<path d="M24.6605 5.76923H30.6425L35.3264 15.0397H35.5211L40.205 5.76923H46.187L38.0848 20.524V27.9231H32.7627V20.524L24.6605 5.76923Z" fill="#0F172A"/>
<path d="M21.7861 13.7957H16.3774C16.3053 13.2404 16.1575 12.7392 15.9339 12.2921C15.7104 11.845 15.4147 11.4627 15.0469 11.1454C14.6791 10.8281 14.2428 10.5865 13.738 10.4207C13.2404 10.2476 12.6887 10.1611 12.083 10.1611C11.0084 10.1611 10.0817 10.4243 9.3029 10.9507C8.53127 11.4772 7.93632 12.238 7.51805 13.2332C7.10699 14.2284 6.90146 15.4327 6.90146 16.8462C6.90146 18.3173 7.11059 19.5505 7.52886 20.5457C7.95435 21.5337 8.5493 22.28 9.31372 22.7849C10.0854 23.2825 10.9976 23.5312 12.0505 23.5312C12.6418 23.5312 13.1791 23.4555 13.6623 23.3041C14.1527 23.1526 14.5817 22.9327 14.9495 22.6442C15.3245 22.3486 15.631 21.9916 15.869 21.5733C16.1142 21.1478 16.2837 20.6683 16.3774 20.1346L21.7861 20.1671C21.6923 21.1478 21.4075 22.1142 20.9315 23.0661C20.4628 24.018 19.8173 24.887 18.9952 25.6731C18.1731 26.4519 17.1707 27.0721 15.988 27.5337C14.8125 27.9952 13.464 28.226 11.9423 28.226C9.93752 28.226 8.14185 27.7861 6.55531 26.9063C4.97598 26.0192 3.72838 24.7284 2.81252 23.0337C1.89665 21.3389 1.43872 19.2764 1.43872 16.8462C1.43872 14.4087 1.90386 12.3425 2.83415 10.6478C3.76444 8.95313 5.02286 7.66587 6.60939 6.78606C8.19593 5.90625 9.97358 5.46635 11.9423 5.46635C13.2837 5.46635 14.5241 5.65385 15.6635 6.02885C16.8029 6.39664 17.8053 6.9375 18.6707 7.65144C19.5361 8.35817 20.2392 9.22716 20.7801 10.2584C21.3209 11.2897 21.6563 12.4688 21.7861 13.7957Z" fill="#0F172A"/>
</svg>
